<svg xmlns="http://www.w3.org/2000/svg" viewBox="0 0 324.93 344.92"><defs><style>.cls-1{fill:#34cf46;}.cls-2{fill:#30c0d2;}.cls-3{fill:#f0c40f;}.cls-4{fill:#fa546a;}.cls-5{fill:#524bed;}</style></defs><g id="Layer_2" data-name="Layer 2"><g id="conteúdo"><polygon class="cls-1" points="278.33 147.3 258.2 147.3 260.69 117.27 237.6 117.27 243.03 157.31 250.94 156.31 250.04 167.33 260.21 167.33 258.2 197.36 278.33 197.36 276.32 167.33 286.5 167.33 285.59 156.31 293.5 157.31 298.75 117.27 276.03 117.27 278.33 147.3"/><path class="cls-2" d="M214,127.28l1.69-9.36-35.69-.1,1.62,9.46-10-.55-3.42,70.63h20.51l-2.54-30h23.35l-2.91,30h21.35l-4-70.73Zm-6.13,20H187.74v-10h20.13Z"/><polygon class="cls-3" points="118.28 117.28 96.45 117.29 98.85 187.19 108.52 186.28 108.52 196.14 157.26 196.92 157.29 175.54 116.35 178.46 118.28 117.28"/><path class="cls-4" d="M86.32,123.71,76,125.28l1.77-10.88-51.1,2.87v80.09H46.82l-1-31.61,31.89.48L76,155.31l10.34,1.53ZM67,147.3H46.82v-13l20.14,2Z"/><path class="cls-5" d="M281.37,95.23c2,10.13,18,7.34,16.29-3.43-2.78-17.45-1.09-22.09,0-33.06.41-3.32-.48-7.08-3.91-8.61-5-2.89-11.57-.07-12.59,5.57-14.85-15.31-38.27,7.42-33,24.84C250.54,94.64,269.89,107.35,281.37,95.23Zm-.78-19.84c-.14,10.75-16.22,10.45-16.45,0C264.25,64.67,280.53,64.37,280.59,75.39Z"/><path class="cls-5" d="M243.23,99.71c10.88-9.78-7.32-18.55-13.89-24.58,2.49-2.88,14.11-7.95,13.93-12.93.81-5.38-5.16-11.71-10.7-9.13-5.9,2.69-9.37,11.19-14.47,14.9,0-9.6-.15-21.95-.16-31.55.2-4.12-.25-8.71-4.71-10.24A8.51,8.51,0,0,0,201.47,35c2.63,24.75,1.34,42.55.05,59.13-.72,9.17,16.62,10.5,16.41-.62-.06-3,.07-8.87.06-11.91C225.33,86.41,233.29,104.74,243.23,99.71Z"/><path class="cls-5" d="M177.63,94.17c0,5,4.63,7.77,9.21,7.33,3.71,0,7.31-3.58,7.12-7.91-.52-11.81,0-23.65,0-35.47,1.28-11.27-16.2-11.81-16.45-.28-.19,8.54,4.6,24.81-8.12,25.69-13.59-.23-7.58-18.52-8.49-27.28-.93-8.94-14.65-9.86-16.17-1.42-.66,7,.18,10.38-.18,21.87C144.08,92,164.14,109.9,177.63,94.17Z"/><path class="cls-5" d="M118.79,95.52c.3,11,18,11.06,16.87-1.71-1.84-21.23-1.23-38.62.31-59.93.89-12.25-16.17-12.5-16.33-.89-.11,7.38.23,14.89-.21,22.19-14.24-13.69-35,5.49-32.94,22.89C88.35,93.74,106.15,107.53,118.79,95.52Zm-7.7-28.34c10.62,0,10.75,16.26.11,16.42C100.37,83.5,100.21,67.24,111.09,67.18Z"/><path class="cls-5" d="M38.23,100.16c13.62,0,24.91.49,38.49-.31,8.69-1.47,7.46-16.41-1.93-16.14-9.71-.39-18.26-.16-28-.16-4.53,0-5.8-9.92.27-9.92,7.09,0,26.26,3.31,26.26-7.68s-16.24-8.46-25.54-8.46c-6,0-5.46-9.67-.42-9.82,7.29-.21,27.76,1.83,32.27-3.41,3.9-4.53,1.88-12.13-4.68-12.5-12.61-1.11-23.17-.5-35.81-.5-6.3,0-10.92,4.88-11.09,10V92.35C28.06,97.53,32.65,100.16,38.23,100.16Z"/><path class="cls-5" d="M281.16,0H43.76A43.81,43.81,0,0,0,0,43.76v257.4a43.81,43.81,0,0,0,43.76,43.76h237.4a43.81,43.81,0,0,0,43.77-43.76V43.76A43.81,43.81,0,0,0,281.16,0Zm2.34,289.26A13.31,13.31,0,1,1,296.74,276,13.28,13.28,0,0,1,283.5,289.26Zm-26.61-26.75a13.31,13.31,0,1,1,13.24-13.31A13.28,13.28,0,0,1,256.89,262.51Zm13.24,40.19a13.24,13.24,0,1,1-13.24-13.31A13.28,13.28,0,0,1,270.13,302.7ZM243.52,276a13.24,13.24,0,1,1-13.24-13.31A13.28,13.28,0,0,1,243.52,276Zm-48.35-.09-14.45,14.37a7.44,7.44,0,1,1-10.51-10.54l14.45-14.38a7.45,7.45,0,0,1,10.51,10.55Zm-38.89,0-14.45,14.37a7.44,7.44,0,1,1-10.51-10.54l14.45-14.38a7.45,7.45,0,0,1,10.51,10.55ZM42.93,286.78a10.31,10.31,0,0,1-10.17-12,10.49,10.49,0,0,1,10.46-8.62h17.2V248.81A10.32,10.32,0,0,1,70.73,238.5h.12a10.32,10.32,0,0,1,10.31,10.31v17.35h17.2a10.49,10.49,0,0,1,10.46,8.62,10.31,10.31,0,0,1-10.17,12H81.16v17.34a10.32,10.32,0,0,1-10.31,10.31h-.12a10.32,10.32,0,0,1-10.31-10.31V286.78ZM296.17,214H28.76A19.76,19.76,0,0,1,9,194.28V43.76A34.76,34.76,0,0,1,43.76,9h237.4a34.77,34.77,0,0,1,34.77,34.77V194.28A19.76,19.76,0,0,1,296.17,214Z"/></g></g></svg>